<svg xmlns="http://www.w3.org/2000/svg" width="1450" height="86" viewBox="0 0 1450 86">
  <defs>
    <style>
      .cls-1 {
        fill-rule: evenodd;
      }
    </style>
  </defs>
  <path id="Forma_1" data-name="Forma 1" class="cls-1" d="M-1,71v30l1452-1c2.02-14.706,3.66-29.123,5-44,1.03-11.459,1.55-21.882,0-35-0.28-2.362-.61-4.659-1-7-46.97,13.6-93.89,25.167-142,35C1152.72,81.762,935.162,90.914,694,75c-67.725-4.469-141.351-10.109-199-16C238.583,32.8,9.214,79.061-1,89c-0.215.21-4.811,4.739-4,8,0.406,1.635,1.821,2.959,4,4" transform="translate(0 -14)"/>
</svg>
